<?xml version="1.0" encoding="UTF-8" standalone="no"?>
<!-- Created with Inkscape (http://www.inkscape.org/) -->

<svg
   width="100mm"
   height="100mm"
   viewBox="0 0 100 100"
   version="1.1"
   id="svg1"
   inkscape:version="1.4.3 (0d15f75, 2025-12-25)"
   sodipodi:docname="com.tercad.tlum.svg"
   xml:space="preserve"
   inkscape:export-filename="assets\images\logo_300.png"
   inkscape:export-xdpi="76.199997"
   inkscape:export-ydpi="76.199997"
   xmlns:inkscape="http://www.inkscape.org/namespaces/inkscape"
   xmlns:sodipodi="http://sodipodi.sourceforge.net/DTD/sodipodi-0.dtd"
   xmlns="http://www.w3.org/2000/svg"
   xmlns:svg="http://www.w3.org/2000/svg"><sodipodi:namedview
     id="namedview1"
     pagecolor="#ffffff"
     bordercolor="#000000"
     borderopacity="0.25"
     inkscape:showpageshadow="2"
     inkscape:pageopacity="0.0"
     inkscape:pagecheckerboard="0"
     inkscape:deskcolor="#d1d1d1"
     inkscape:document-units="mm"
     showguides="true"
     inkscape:zoom="1.4142136"
     inkscape:cx="116.31906"
     inkscape:cy="143.18912"
     inkscape:window-width="1920"
     inkscape:window-height="974"
     inkscape:window-x="-11"
     inkscape:window-y="1789"
     inkscape:window-maximized="1"
     inkscape:current-layer="layer1"><sodipodi:guide
       position="21.232812,35.243231"
       orientation="0,-1"
       id="guide1"
       inkscape:locked="false" /><sodipodi:guide
       position="92.670779,43.558006"
       orientation="1,0"
       id="guide3"
       inkscape:locked="false" /><sodipodi:guide
       position="66.852398,6.8450183"
       orientation="0,-1"
       id="guide11"
       inkscape:locked="false" /><sodipodi:guide
       position="7.1236162,48.125461"
       orientation="1,0"
       id="guide12"
       inkscape:locked="false" /><sodipodi:guide
       position="35.800738,92.693726"
       orientation="0,-1"
       id="guide13"
       inkscape:locked="false" /><sodipodi:guide
       position="30.588996,79.373474"
       orientation="0,-1"
       id="guide2"
       inkscape:locked="false" /><sodipodi:guide
       position="61.365081,43.8734"
       orientation="0,-1"
       id="guide4"
       inkscape:locked="false" /><sodipodi:guide
       position="31.617984,49.673149"
       orientation="0,-1"
       id="guide5"
       inkscape:locked="false" /><sodipodi:guide
       position="35.780707,46.445869"
       orientation="0,-1"
       id="guide6"
       inkscape:locked="false" /></sodipodi:namedview><defs
     id="defs1" /><g
     inkscape:label="Layer 1"
     inkscape:groupmode="layer"
     id="layer1"><circle
       style="fill:#912391;stroke-width:0.264583;fill-opacity:1"
       id="path6"
       cx="50.046219"
       cy="50.046219"
       r="42.74976" /><path
       d="m 18.928918,31.171764 h 6.019835 v 15.514413 c 0,4.054945 0.231379,6.617518 5.798863,3.19272 -0.02179,-0.326937 -0.0327,-0.901919 -0.0327,-1.228856 V 37.359626 h 5.818255 v 10.396579 c 0,3.055402 0.787497,6.577617 5.967805,2.608286 V 37.359626 h 5.91752 l -0.068,18.837497 h -5.917478 l 0.06801,-2.605101 c -0.959012,0.795545 -1.912579,1.416723 -2.860694,1.863537 -0.959014,0.446814 -1.977967,0.67022 -3.056855,0.67022 -1.242361,0 -2.294005,-0.261549 -3.154939,-0.784647 -0.87183,-0.523099 -1.520254,-1.247808 -1.94527,-2.174129 -1.242361,1.046198 -2.37574,1.798151 -3.400142,2.255862 -1.024401,0.46861 -2.119636,0.702914 -3.285707,0.702914 -2.005216,0 -3.481878,-0.610281 -4.429994,-1.830844 -0.959009,-1.209666 -1.438512,-2.904286 -1.438512,-5.083861 z"
       id="text1-3"
       style="font-size:22.4781px;stroke-width:2.78985;fill:#ffffff"
       aria-label="m"
       sodipodi:nodetypes="ccscsccscccccccscccscsc" /><path
       d="M 80.756789,62.359226 H 74.736954 V 46.844813 c 0,-4.054945 -0.231379,-6.617518 -5.798863,-3.19272 0.02179,0.326937 0.0327,0.901919 0.0327,1.228856 V 56.171364 H 63.152536 V 45.774785 c 0,-3.055402 -0.787497,-6.577617 -5.967805,-2.608286 v 13.004865 h -5.91752 l 0.068,-18.837497 h 5.917478 l -0.06801,2.605101 c 0.959012,-0.795545 1.912579,-1.416723 2.860694,-1.863537 0.959014,-0.446814 1.977967,-0.67022 3.056855,-0.67022 1.242361,0 2.294005,0.261549 3.154939,0.784647 0.87183,0.523099 1.520254,1.247808 1.94527,2.174129 1.242361,-1.046198 2.37574,-1.798151 3.400142,-2.255862 1.024401,-0.46861 2.119636,-0.702914 3.285707,-0.702914 2.005216,0 3.481878,0.610281 4.429994,1.830844 0.959009,1.209666 1.438512,2.904286 1.438512,5.083861 z"
       id="text1-3-52"
       style="font-size:22.4781px;stroke-width:2.78985;fill:#ffffff"
       aria-label="m"
       sodipodi:nodetypes="ccscsccscccccccscccscsc" /><path
       id="text1-3-1"
       style="font-size:22.4781px;fill:#ffffff;stroke-width:2.78985"
       d="M 80.860673,64.938847 66.131238,75.797648 c 0.671889,-3.388222 -0.04747,-5.951346 -2.206551,-7.569295 -8.927342,-5.360556 -25.021416,-3.230017 -44.84897,-3.406112 l -0.132292,8.298477 c 18.558135,-1.015181 45.681362,-6.191888 43.191226,3.204399 -0.349577,0.633202 -0.590202,1.147771 -1.217624,1.941011 l 3.409491,1.518757 0.04381,0.01049 0.0011,-7.25e-4 0.0029,7.25e-4 c 10e-4,-0.0014 0.002,-0.003 0.0029,-0.0045 l 16.495787,-8.570017 z"
       sodipodi:nodetypes="ccsccccccccccc" /><path
       d="m 80.81083,27.876131 -27.622692,0.02339 v 5.793089 h -5.914652 v -5.793093 l -28.43605,-0.07016 -0.01169,-6.116502 61.985087,0.03508 z"
       id="text2"
       style="font-size:19.1374px;fill:#ffffff;stroke-width:2.37522"
       aria-label="T"
       sodipodi:nodetypes="ccccccccc" /></g></svg>
