<?xml version="1.0" encoding="UTF-8" standalone="no"?>
<!-- Created with Inkscape (http://www.inkscape.org/) -->

<svg
   width="100mm"
   height="100mm"
   viewBox="0 0 100 100"
   version="1.1"
   id="svg1"
   inkscape:version="1.3.2 (091e20e, 2023-11-25, custom)"
   sodipodi:docname="tlum.svg"
   xmlns:inkscape="http://www.inkscape.org/namespaces/inkscape"
   xmlns:sodipodi="http://sodipodi.sourceforge.net/DTD/sodipodi-0.dtd"
   xmlns="http://www.w3.org/2000/svg"
   xmlns:svg="http://www.w3.org/2000/svg">
  <sodipodi:namedview
     id="namedview1"
     pagecolor="#ffffff"
     bordercolor="#000000"
     borderopacity="0.25"
     inkscape:showpageshadow="2"
     inkscape:pageopacity="0.0"
     inkscape:pagecheckerboard="0"
     inkscape:deskcolor="#d1d1d1"
     inkscape:document-units="mm"
     showguides="true"
     inkscape:zoom="2"
     inkscape:cx="130.75"
     inkscape:cy="210.25"
     inkscape:window-width="1920"
     inkscape:window-height="1009"
     inkscape:window-x="1912"
     inkscape:window-y="-8"
     inkscape:window-maximized="1"
     inkscape:current-layer="layer1">
    <sodipodi:guide
       position="79.948728,35.033586"
       orientation="0,-1"
       id="guide1"
       inkscape:locked="false" />
    <sodipodi:guide
       position="92.670779,43.558006"
       orientation="1,0"
       id="guide3"
       inkscape:locked="false" />
    <sodipodi:guide
       position="66.852398,6.8450183"
       orientation="0,-1"
       id="guide11"
       inkscape:locked="false" />
    <sodipodi:guide
       position="7.1236162,48.125461"
       orientation="1,0"
       id="guide12"
       inkscape:locked="false" />
    <sodipodi:guide
       position="35.800738,92.693726"
       orientation="0,-1"
       id="guide13"
       inkscape:locked="false" />
  </sodipodi:namedview>
  <defs
     id="defs1" />
  <g
     inkscape:label="Layer 1"
     inkscape:groupmode="layer"
     id="layer1">
    <path
       d="m 92.72391,64.857249 h -4.241514 l 0,-18.159109 c 0,-1.082941 -0.05264,-2.128278 -0.15793,-3.136013 -0.09024,-1.007736 -0.293291,-1.812422 -0.609153,-2.414054 -0.345939,-0.646756 -0.842287,-1.135584 -1.489043,-1.466483 -0.646756,-0.330898 -1.579286,-0.496347 -2.797595,-0.496347 -1.188226,0 -2.376451,0.300817 -3.564677,0.902451 -1.188225,0.586594 -2.376451,1.338634 -3.564676,2.256124 0.04512,0.345939 0.08274,0.752043 0.11281,1.218309 0.03007,0.451225 0.04512,0.902449 0.04512,1.353674 V 61.047092 H 72.215738 V 46.69814 c 0,-1.113023 -0.05264,-2.16588 -0.15793,-3.158575 -0.09024,-1.007736 -0.293292,-1.812422 -0.609153,-2.414054 -0.345939,-0.646756 -0.842287,-1.128063 -1.489043,-1.443921 -0.646756,-0.330898 -1.579287,-0.496347 -2.797593,-0.496347 -1.158145,0 -2.32381,0.285776 -3.496995,0.857329 -1.158144,0.571551 -2.316288,1.301032 -3.474431,2.18844 v 18.81608 H 55.949077 V 35.066291 h 4.241516 v 3.577482 c 1.323592,-1.097979 2.639666,-1.955306 3.948219,-2.571981 1.323593,-0.616675 2.729911,-0.925011 4.218951,-0.925011 1.714657,0 3.166097,0.36098 4.354322,1.082939 1.203266,0.721961 2.098196,1.722175 2.684788,3.000647 1.714656,-1.443921 3.278902,-2.481738 4.692739,-3.113453 1.413839,-0.646756 2.925442,-0.970133 4.534812,-0.970133 2.767514,0 4.805545,0.842286 6.114098,2.526859 1.323593,1.669533 1.98539,4.008381 1.98539,7.016548 z"
       id="text1"
       style="font-size:22.4781px;stroke-width:3.85044"
       aria-label="m"
       sodipodi:nodetypes="ccsccsscccsccscccsccccccccscccscsc" />
    <path
       d="m 7.1423316,26.479726 h 4.2414954 v 21.412387 c 0,1.082941 0.02033,2.128277 0.04486,3.136013 -0.0077,2.03806 0.321417,4.123049 2.211222,5.357346 0.646751,0.330898 1.579284,0.496347 2.797597,0.496347 1.188219,0 2.376445,-0.300817 3.564676,-0.902451 1.188224,-0.586593 2.376447,-1.338634 3.564673,-2.256124 -0.04512,-0.345939 -0.08274,-0.752042 -0.11281,-1.218309 -0.03007,-0.451225 -0.04512,-0.902449 -0.04512,-1.353674 V 35.01997 h 4.241514 v 14.348952 c 0,1.113023 0.05264,2.16588 0.15793,3.158575 0.09024,1.007736 0.293291,1.812422 0.609153,2.414054 0.345939,0.646756 0.842287,1.128063 1.489043,1.443921 0.646756,0.330898 1.579286,0.496347 2.797593,0.496347 1.158144,0 2.32381,-0.285776 3.496995,-0.857329 1.158144,-0.571551 2.316288,-1.301031 3.47443,-2.18844 V 35.01997 h 4.241578 l -0.09386,25.998778 H 39.58178 l 0.09386,-3.595459 c -1.323591,1.097979 -2.639666,1.955306 -3.948218,2.571981 -1.323594,0.616675 -2.729912,0.925011 -4.218952,0.925011 -1.714657,0 -3.166096,-0.360979 -4.354322,-1.082939 -1.203266,-0.721961 -2.098196,-1.722175 -2.684787,-3.000647 -1.714657,1.443921 -3.278903,2.481738 -4.692742,3.113453 -1.413839,0.646756 -2.92544,0.970133 -4.534805,0.970133 -2.767519,0 -4.805552,-0.842286 -6.1141046,-2.526859 C 7.8041242,56.723889 7.1423316,54.385041 7.1423316,51.376875 Z"
       id="text1-3"
       style="font-size:22.4781px;stroke-width:3.85044"
       aria-label="m"
       sodipodi:nodetypes="ccscsscccsccscccsccccccccscccscsc" />
    <path
       id="text1-3-1"
       style="font-size:22.4781px;stroke-width:3.85044"
       d="M 92.618119 68.392208 L 72.289128 81.732996 C 72.478726 80.438752 72.309185 79.188953 71.77133 77.985421 C 71.21113 76.712914 70.228496 75.58562 68.823189 74.603198 C 66.90071 73.259252 63.393516 71.404179 60.357039 71.40081 C 60.313302 71.400761 60.269317 71.399565 60.225781 71.400293 L 60.225781 71.40081 L 7.1623535 71.40081 L 7.1623535 75.756099 L 60.224231 75.756099 L 60.224231 75.754032 C 60.845386 75.747331 60.958553 75.741709 62.171916 75.927148 C 63.460916 76.130886 64.580133 76.56428 65.529333 77.227844 C 66.527838 77.925882 67.197515 78.595778 67.537996 79.237541 C 67.887101 79.866972 68.017747 80.545828 67.930737 81.274109 C 67.844897 81.94817 67.550501 82.724502 67.04707 83.602132 C 66.564597 84.476052 66.004268 85.368824 65.366553 86.281038 L 69.798324 87.236019 L 69.858785 87.250488 L 69.860335 87.249455 L 69.864469 87.250488 C 69.865893 87.248452 69.867181 87.246324 69.868604 87.244287 L 92.635173 72.640527 L 92.618119 68.392208 z " />
    <path
       d="M 92.549326,18.400738 H 52.599729 V 28.477971 H 48.316464 V 18.400738 H 7.1451778 V 14.171073 H 92.549326 Z"
       id="text2"
       style="font-size:19.1374px;fill:#000000;stroke-width:3.27819"
       aria-label="T"
       sodipodi:nodetypes="ccccccccc" />
  </g>
</svg>
